ffmpeg version 3.4.8-0ubuntu0.2 Copyright (c) 2000-2020 the FFmpeg developers
  built with gcc 7 (Ubuntu 7.5.0-3ubuntu1~18.04)
  configuration: --prefix=/usr --extra-version=0ubuntu0.2 --toolchain=hardened --libdir=/usr/lib/x86_64-linux-gnu --incdir=/usr/include/x86_64-linux-gnu --enable-gpl --disable-stripping --enable-avresample --enable-avisynth --enable-gnutls --enable-ladspa --enable-libass --enable-libbluray --enable-libbs2b --enable-libcaca --enable-libcdio --enable-libflite --enable-libfontconfig --enable-libfreetype --enable-libfribidi --enable-libgme --enable-libgsm --enable-libmp3lame --enable-libmysofa --enable-libopenjpeg --enable-libopenmpt --enable-libopus --enable-libpulse --enable-librubberband --enable-librsvg --enable-libshine --enable-libsnappy --enable-libsoxr --enable-libspeex --enable-libssh --enable-libtheora --enable-libtwolame --enable-libvorbis --enable-libvpx --enable-libwavpack --enable-libwebp --enable-libx265 --enable-libxml2 --enable-libxvid --enable-libzmq --enable-libzvbi --enable-omx --enable-openal --enable-opengl --enable-sdl2 --enable-libdc1394 --enable-libdrm --enable-libiec61883 --enable-chromaprint --enable-frei0r --enable-libopencv --enable-libx264 --enable-shared
  libavutil      55. 78.100 / 55. 78.100
  libavcodec     57.107.100 / 57.107.100
  libavformat    57. 83.100 / 57. 83.100
  libavdevice    57. 10.100 / 57. 10.100
  libavfilter     6.107.100 /  6.107.100
  libavresample   3.  7.  0 /  3.  7.  0
  libswscale      4.  8.100 /  4.  8.100
  libswresample   2.  9.100 /  2.  9.100
  libpostproc    54.  7.100 / 54.  7.100
[rawvideo @ 0x558512ce8a20] Estimating duration from bitrate, this may be inaccurate
Input #0, rawvideo, from '../../SVC-Encoder-20220109T061506Z-001/SVC-Encoder/Dataset/RollerCoaster/ERP_8x8/tile_yuv/Tile_57_480x240.yuv':
  Duration: 00:00:10.00, start: 0.000000, bitrate: 41472 kb/s
    Stream #0:0: Video: rawvideo (I420 / 0x30323449), yuv420p, 480x240, 41472 kb/s, 30 tbr, 30 tbn, 30 tbc
Stream mapping:
  Stream #0:0 -> #0:0 (rawvideo (native) -> h264 (libx264))
Press [q] to stop, [?] for help
[libx264 @ 0x558512cf5c60] using cpu capabilities: MMX2 SSE2Fast LZCNT SSSE3 SSE4.2 AVX
[libx264 @ 0x558512cf5c60] profile High, level 2.1
Output #0, rawvideo, to 'RollerCoaster_Tile_57_480x240_x264_QP_28.h264':
  Metadata:
    encoder         : Lavf57.83.100
    Stream #0:0: Video: h264 (libx264), yuv420p, 480x240, q=-1--1, 30 fps, 30 tbn, 30 tbc
    Metadata:
      encoder         : Lavc57.107.100 libx264
    Side data:
      cpb: bitrate max/min/avg: 0/0/0 buffer size: 0 vbv_delay: -1
frame=  215 fps=0.0 q=34.0 PSNR=Y:nan U:nan V:nan *:nan size=      41kB time=00:00:05.73 bitrate=  59.2kbits/s speed=11.4x    frame=  300 fps=0.0 q=34.0 LPSNR=Y:inf U:inf V:inf *:inf size=      70kB time=00:00:09.93 bitrate=  57.4kbits/s speed=13.8x    
video:70kB audio:0kB subtitle:0kB other streams:0kB global headers:0kB muxing overhead: 0.000000%
[libx264 @ 0x558512cf5c60] frame I:2     Avg QP:26.32  size:  4840  PSNR Mean Y:46.35 U:49.32 V:46.01 Avg:46.66 Global:46.63
[libx264 @ 0x558512cf5c60] frame P:76    Avg QP:26.71  size:   460  PSNR Mean Y:44.93 U:48.43 V:46.02 Avg:45.53 Global:45.50
[libx264 @ 0x558512cf5c60] frame B:222   Avg QP:33.40  size:   120  PSNR Mean Y:44.66 U:48.39 V:45.93 Avg:45.30 Global:45.28
[libx264 @ 0x558512cf5c60] consecutive B-frames:  1.0%  0.7%  1.0% 97.3%
[libx264 @ 0x558512cf5c60] mb I  I16..4: 54.7% 25.3% 20.0%
[libx264 @ 0x558512cf5c60] mb P  I16..4:  2.7%  0.5%  0.0%  P16..4: 29.9%  4.4%  0.5%  0.0%  0.0%    skip:61.8%
[libx264 @ 0x558512cf5c60] mb B  I16..4:  0.1%  0.0%  0.0%  B16..8: 19.8%  0.4%  0.0%  direct: 0.0%  skip:79.7%  L0:43.5% L1:56.2% BI: 0.3%
[libx264 @ 0x558512cf5c60] 8x8 transform intra:19.7% inter:89.4%
[libx264 @ 0x558512cf5c60] coded y,uvDC,uvAC intra: 16.1% 32.4% 14.4% inter: 1.3% 2.2% 0.0%
[libx264 @ 0x558512cf5c60] i16 v,h,dc,p: 29% 54% 10%  7%
[libx264 @ 0x558512cf5c60] i8 v,h,dc,ddl,ddr,vr,hd,vl,hu:  5% 21% 52%  3%  3%  3%  3%  3%  8%
[libx264 @ 0x558512cf5c60] i4 v,h,dc,ddl,ddr,vr,hd,vl,hu:  9% 53% 22%  2%  2%  1%  4%  1%  6%
[libx264 @ 0x558512cf5c60] i8c dc,h,v,p: 58% 32%  7%  3%
[libx264 @ 0x558512cf5c60] Weighted P-Frames: Y:2.6% UV:0.0%
[libx264 @ 0x558512cf5c60] ref P L0: 59.7% 11.9% 20.8%  7.5%  0.1%
[libx264 @ 0x558512cf5c60] ref B L0: 70.2% 23.7%  6.1%
[libx264 @ 0x558512cf5c60] ref B L1: 81.4% 18.6%
[libx264 @ 0x558512cf5c60] PSNR Mean Y:44.740 U:48.404 V:45.953 Avg:45.369 Global:45.345 kb/s:57.03
